<?xml version="1.0" encoding="UTF-8"?>
<svg width="18px" height="18px" viewBox="0 0 18 18" version="1.1" xmlns="http://www.w3.org/2000/svg" xmlns:xlink="http://www.w3.org/1999/xlink">
    <title>icon/m3/bar-language</title>
    <g id="icon/m3/bar-language" stroke="none" stroke-width="1" fill="none" fill-rule="evenodd">
        <path d="M9,0 C13.9705627,0 18,4.02943725 18,9 C18,13.9705627 13.9705627,18 9,18 C4.02943725,18 0,13.9705627 0,9 C0,4.02943725 4.02943725,0 9,0 Z M16.4180912,12.0009677 L12.5479612,12.0011179 C12.1542747,13.8803678 11.3533323,15.4981588 10.1016018,16.9240205 C12.9757892,16.5290993 15.3631711,14.6060776 16.4180912,12.0009677 Z M5.29054351,12.0011179 L1.58190884,12.0009677 C2.61401665,14.5497432 4.92158157,16.4456113 7.71306382,16.8970322 C6.47502622,15.4776213 5.68173244,13.8684455 5.29054351,12.0011179 Z M11.5244765,12.0011942 L6.31402826,12.0011942 C6.73389489,13.8309217 7.58393377,15.3716313 8.91883601,16.7267201 C10.254571,15.3716313 11.1046099,13.8309217 11.5244765,12.0011942 Z M5.12203147,6.99998982 L1.25186923,7.00064404 C1.08744724,7.63968997 1,8.30963279 1,9 C1,9.6907281 1.08753869,10.3610104 1.25212715,11.0003581 L5.12248186,11.0013368 C5.04033643,10.3636149 5,9.69728664 5,9 C5,8.30308564 5.04017844,7.6372072 5.12203147,6.99998982 Z M11.7078732,6.99997022 L6.13063151,6.99997022 C6.04289704,7.63248229 6,8.29794332 6,9 C6,9.70219102 6.04304652,10.3679058 6.13105168,11.0007593 L11.7074531,11.0007593 C11.7954582,10.3679058 11.8385047,9.70219102 11.8385047,9 C11.8385047,8.29794332 11.7956077,7.63248229 11.7078732,6.99997022 Z M16.7481308,7.00064404 L12.7164733,6.99998982 C12.7983263,7.6372072 12.8385047,8.30308564 12.8385047,9 C12.8385047,9.69728664 12.7981683,10.3636149 12.7160229,11.0013368 L16.7478729,11.0003581 C16.9124613,10.3610104 17,9.6907281 17,9 C17,8.30963279 16.9125528,7.63968997 16.7481308,7.00064404 Z M7.71108464,1.10444579 L7.53559939,1.13372664 C4.82363109,1.63540319 2.5914684,3.50496875 1.58150511,6.0000295 L5.28974073,5.99996651 C5.68029099,4.13194344 6.47288303,2.52315489 7.71108464,1.10444579 Z M8.92008429,1.27321327 L8.86423784,1.32853238 C7.55927587,2.67001389 6.72673429,4.19365405 6.31309588,6.00003114 L11.5254089,6.00003114 C11.1060741,4.1687776 10.2562188,2.62810201 8.92008429,1.27321327 Z M10.1031386,1.0754362 L10.1405791,1.11954958 C11.3712394,2.53457099 12.159599,4.13856938 12.548764,5.99996651 L16.4184949,6.0000295 C15.3640249,3.39501728 12.9772631,1.47184316 10.1031386,1.0754362 Z" id="形状结合" fill="#FFFFFF" fill-rule="nonzero"></path>
    </g>
</svg>